<svg width="373" height="92" viewBox="0 0 373 92" fill="none" xmlns="http://www.w3.org/2000/svg">
<path d="M22.3017 71.8594C30.8273 71.8594 35.2619 66.9435 37.2902 62.5432H37.909V71H52.3474V0.595307H37.7371V27.0658H37.2902C35.3307 22.7687 31.1023 17.5089 22.2673 17.5089C10.6822 17.5089 0.884634 26.5158 0.884634 44.667C0.884634 62.3369 10.2696 71.8594 22.3017 71.8594ZM26.9426 60.2055C19.7578 60.2055 15.8388 53.8114 15.8388 44.5982C15.8388 35.4539 19.689 29.1628 26.9426 29.1628C34.0587 29.1628 38.0465 35.1789 38.0465 44.5982C38.0465 54.0176 33.99 60.2055 26.9426 60.2055ZM79.4453 71.9969C87.249 71.9969 92.3024 68.5936 94.8807 63.6776H95.2933V71H109.182V35.3851C109.182 22.803 98.5247 17.5089 86.7677 17.5089C74.1169 17.5089 65.7976 23.5593 63.7693 33.185L77.3139 34.2851C78.3109 30.7786 81.4392 28.2003 86.6989 28.2003C91.6837 28.2003 94.537 30.7098 94.537 35.0414V35.2476C94.537 38.651 90.9274 39.0979 81.7486 39.9917C71.2979 40.9542 61.9129 44.4607 61.9129 56.2521C61.9129 66.7028 69.3728 71.9969 79.4453 71.9969ZM83.6394 61.89C79.1359 61.89 75.9045 59.793 75.9045 55.7709C75.9045 51.6456 79.3078 49.6173 84.4644 48.8954C87.6615 48.4485 92.8869 47.6922 94.6401 46.5234V52.1269C94.6401 57.6616 90.0679 61.89 83.6394 61.89ZM164.478 33.2537C163.171 23.525 155.333 17.5089 141.995 17.5089C128.485 17.5089 119.581 23.7656 119.615 33.9413C119.581 41.8481 124.566 46.9703 134.879 49.0329L144.023 50.8549C148.63 51.7831 150.727 53.4676 150.795 56.1146C150.727 59.243 147.323 61.4775 142.201 61.4775C136.976 61.4775 133.504 59.243 132.61 54.9458L118.206 55.7021C119.581 65.809 128.175 72.0313 142.167 72.0313C155.849 72.0313 165.646 65.0527 165.681 54.6364C165.646 47.0047 160.662 42.4325 150.417 40.3355L140.86 38.4103C135.944 37.3446 134.122 35.6601 134.157 33.1162C134.122 29.9535 137.698 27.8909 142.235 27.8909C147.323 27.8909 150.348 30.6754 151.07 34.0788L164.478 33.2537ZM189.547 40.473C189.582 33.6663 193.741 29.6785 199.723 29.6785C205.67 29.6785 209.177 33.4944 209.142 39.9917V71H223.787V37.379C223.821 25.0032 216.533 17.5089 205.533 17.5089C197.523 17.5089 192.16 21.2904 189.753 27.5127H189.135V0.595307H174.902V71H189.547V40.473ZM259.101 91.9014C274.193 91.9014 284.918 85.0259 284.918 71.5157V18.1965H270.377V27.0658H269.827C267.867 22.7687 263.57 17.5089 254.735 17.5089C243.15 17.5089 233.352 26.5158 233.352 44.4951C233.352 62.0619 242.875 70.2437 254.77 70.2437C263.192 70.2437 267.902 66.0153 269.827 61.6494H270.446V71.3094C270.446 78.563 265.805 81.3819 259.445 81.3819C252.982 81.3819 249.716 78.563 248.513 75.3659L234.968 77.1879C236.721 85.5072 244.869 91.9014 259.101 91.9014ZM259.41 59.243C252.226 59.243 248.307 53.5363 248.307 44.4264C248.307 35.4539 252.157 29.1628 259.41 29.1628C266.527 29.1628 270.514 35.1789 270.514 44.4264C270.514 53.7426 266.458 59.243 259.41 59.243ZM320.43 72.0313C336.45 72.0313 346.419 61.065 346.419 44.8045C346.419 28.4409 336.45 17.5089 320.43 17.5089C304.41 17.5089 294.441 28.4409 294.441 44.8045C294.441 61.065 304.41 72.0313 320.43 72.0313ZM320.499 60.6868C313.108 60.6868 309.326 53.9145 309.326 44.7014C309.326 35.4883 313.108 28.6816 320.499 28.6816C327.752 28.6816 331.534 35.4883 331.534 44.7014C331.534 53.9145 327.752 60.6868 320.499 60.6868Z" fill="white"/>
<path d="M364.502 71.8938C368.902 71.8938 372.718 68.2154 372.752 63.6433C372.718 59.1398 368.902 55.4615 364.502 55.4615C359.964 55.4615 356.217 59.1398 356.251 63.6433C356.217 68.2154 359.964 71.8938 364.502 71.8938Z" fill="#D53F8C"/>
</svg>
